<svg xmlns="http://www.w3.org/2000/svg" xmlns:xlink="http://www.w3.org/1999/xlink" version="1.1" x="0px" y="0px" viewBox="0 0 200 200" enable-background="new 0 0 200 200" xml:space="preserve"><g><path fill="#555759" d="M100 0C44.86 0 0 44.9 0 100.001C0 155.1 44.9 200 100 200c55.14 0 100-44.859 100-99.999 C200 44.9 155.1 0 100 0z"/><path fill="#8B2332" d="M100 195.345c-52.573 0-95.345-42.771-95.345-95.345C4.654 47.4 47.4 4.7 100 4.7 c52.574 0 95.3 42.8 95.3 95.346C195.346 152.6 152.6 195.3 100 195.345z"/><path fill="#FFFFFF" d="M100 195.879c-52.868 0-95.879-43.011-95.879-95.878c0-52.868 43.011-95.88 95.879-95.88 s95.879 43 95.9 95.88C195.879 152.9 152.9 195.9 100 195.879z M100 5.647c-52.027 0-94.353 42.327-94.353 94.4 c0 52 42.3 94.4 94.4 94.352c52.026 0 94.353-42.326 94.353-94.352C194.353 48 152 5.6 100 5.647z"/><g><path fill="#FFFFFF" d="M36.247 127.146l2.922 6.147l-0.964 2.712l-4.003 1.903l-2.227-0.792l-0.792 2.227l-4.397 2.1 l-2.71-0.964l-2.923-6.146L36.247 127.146z M25.569 137.801l0.904 0.322l3.018-1.435l0.39-1.044l-0.78-1.64l-4.353 2.1 L25.569 137.801z M32.113 134.583l1.054 0.357l2.669-1.268l0.321-0.905l-0.822-1.727l-4.003 1.903L32.113 134.583z"/><path fill="#FFFFFF" d="M30.895 148.172l11.73-8.824l1.864 2.478l-10.684 8.037l-0.12 0.969l0.626 0.832l0.965 0.153l10.684-8.037 l1.864 2.478l-11.73 8.824l-2.849-0.402l-2.752-3.658L30.895 148.172z"/><path fill="#FFFFFF" d="M51.335 150.06l5.197 4.617l0.17 2.872l-3.893 4.382l-2.343 0.121l-3.367 6.6l-2.354-2.093l3.269-6.232 l-0.905-0.805l-4.536 5.107l-2.336-2.074L51.335 150.06z M50.24 159.098l0.973-0.074l2.445-2.753l-0.041-0.975l-1.539-1.367 l-3.378 3.802L50.24 159.098z"/><path fill="#FFFFFF" d="M54.512 171.455l6.364-10.924l2.782-0.733l4.06 2.365l0.734 2.782l-1.524 2.616l-2.699-1.574l0.902-1.548 l-0.232-0.948l-1.005-0.585l-0.939 0.265l-5.17 8.873l0.245 0.928l1.025 0.597l0.928-0.245l1.609-2.762l-1.277-0.744l1.329-2.282 l3.976 2.317l-3.512 6.026l-2.782 0.733l-4.081-2.376L54.512 171.455z"/><path fill="#FFFFFF" d="M74.11 165.227l6.925 2.427l-0.904 2.583l-3.978-1.393l-1.354 3.862l3.611 1.265l-0.905 2.6 l-3.612-1.265l-1.458 4.161l4.024 1.41l-0.905 2.583l-6.972-2.444L74.11 165.227z"/><path fill="#FFFFFF" d="M85.844 168.881l6.879 1.004l1.72 2.307l-0.847 5.801l-1.891 1.388l0.81 7.363l-3.116-0.455l-0.691-7.003 l-1.198-0.176l-0.986 6.76l-3.092-0.451L85.844 168.881z M89.892 177.035l0.772-0.596l0.532-3.643l-0.57-0.793l-2.037-0.297 l-0.734 5.032L89.892 177.035z"/><path fill="#FFFFFF" d="M109.478 172.433l-2.801 0.43l-0.425-2.777l8.691-1.332l0.425 2.778l-2.825 0.432l2.105 13.7 l-3.065 0.469L109.478 172.433z"/><path fill="#FFFFFF" d="M120.367 167.217l4.305-1.486l7.882 14.963l-2.908 1.004l-1.723-3.506l-2.565 0.885l0.807 3.8 l-2.771 0.956L120.367 167.217z M124.818 176.546l1.947-0.671l-3.666-7.499L124.818 176.546z"/><path fill="#FFFFFF" d="M130.107 163.507l2.753-1.577l8.376 11.449l-5.623-13.027l2.564-1.469l6.251 15.683l-3.951 2.3 L130.107 163.507z"/><path fill="#FFFFFF" d="M141.792 156.217l5.593-4.752l1.773 2.085l-3.212 2.73l2.651 3.12l2.917-2.479l1.772 2.087l-2.916 2.5 l2.855 3.359l3.249-2.761l1.772 2.086l-5.63 4.784L141.792 156.217z"/><path fill="#FFFFFF" d="M150.897 147.926l4.356-5.416l2.861-0.31l4.568 3.673l0.236 2.335l6.755 3.04l-1.973 2.453l-6.385-2.96 l-0.759 0.944l5.323 4.28l-1.958 2.435L150.897 147.926z M159.977 148.577l-0.122-0.968l-2.869-2.308l-0.972 0.088l-1.291 1.6 l3.963 3.187L159.977 148.577z"/><path fill="#FFFFFF" d="M159.136 136.871l1.206-2.348l10.405 1.367l-8.79-4.513l1.261-2.455l14.866 7.632l-1.206 2.3 l-10.557-1.444l8.941 4.59l-1.261 2.456L159.136 136.871z"/></g><g></g><path fill="#555759" d="M149.775 97.853c0 27.577-22.349 49.931-49.931 49.931c-27.568 0-49.926-22.354-49.926-49.931 c0-27.573 22.357-49.929 49.926-49.929C127.426 47.9 149.8 70.3 149.8 97.853z"/><path fill="#FFFFFF" d="M99.844 49.218c26.818 0 48.6 21.8 48.6 48.635c0 26.818-21.818 48.636-48.636 48.6 c-26.815 0-48.631-21.818-48.631-48.636C51.213 71 73 49.2 99.8 49.2 M99.844 47.9 c-27.568 0-49.926 22.357-49.926 49.929c0 27.6 22.4 49.9 49.9 49.931c27.582 0 49.931-22.354 49.931-49.931 C149.775 70.3 127.4 47.9 99.8 47.924L99.844 47.924z"/><polygon fill-rule="evenodd" clip-rule="evenodd" fill="#FFFFFF" points="179.5,105.5 175.4,102.2 171.1,105.4 172.9,100.4 168.6,97.3 173.9,97.5 175.5,92.4 177,97.5 182.3,97.5 177.9,100.4"/><polygon fill-rule="evenodd" clip-rule="evenodd" fill="#FFFFFF" points="28,105.5 23.9,102.2 19.6,105.4 21.4,100.4 17.1,97.3 22.4,97.5 24,92.4 25.4,97.5 30.7,97.5 26.4,100.4"/><g><path fill="#FFFFFF" d="M122.222 47.902c19.631 8.9 32.3 28.3 32.3 49.948c0.001 13.688-5.034 26.656-14.179 36.8 l0.776 1.04c9.465-10.361 14.679-23.704 14.677-37.795c0-22.141-12.971-42.108-33.12-51.159L122.222 47.902z"/><path fill="#FFFFFF" d="M59.06 134.625c-9.155-10.097-14.198-23.073-14.198-36.766C44.859 76.2 57.5 56.8 77.1 47.9 l-0.394-1.221c-20.141 9.061-33.092 28.991-33.089 51.153c0 14.1 5.2 27.5 14.7 37.811L59.06 134.625z"/></g><path fill="#FFFFFF" d="M117.612 110.561v-4.677c3.576-4.063 5.536-9.191 5.536-14.536c0-8.819-5.301-16.467-13.005-20.18 l10.496-30.364l-21.045-7.148l-20.883 6.934l9.935 30.799c-7.457 3.79-12.552 11.313-12.552 20 c0 5.3 2 10.5 5.5 14.533v4.684l-23.454 31.697l2.236 4.209l38.523 20.7l40.005-20.806l2.24-4.236L117.612 110.561z"/><polygon fill="#8B2332" points="104.2,98 99.6,94.4 94.8,97.9 96.8,92.3 92,88.8 97.9,89.1 99.8,83.4 101.3,89.1 107.3,89.1 102.4,92.4"/><g><path fill="#555759" d="M115.483 111.351v-6.21c3.441-3.625 5.536-8.429 5.536-13.709c0-11.286-9.583-20.444-21.401-20.444 c-11.811 0-21.392 9.157-21.392 20.444c0 5.3 2.1 10.1 5.5 13.709v6.21l-23.073 31.181l1.294 2.436l36.969 19.2 l38.425-19.273l1.292-2.443L115.483 111.351z M99.617 73.082c10.289 0 18.6 8.2 18.6 18.4 c0 5.277-2.26 10.031-5.879 13.388l0 0c-0.187 0.185-0.405 0.378-0.623 0.559l-0.016 0.006c-0.198 0.177-0.419 0.355-0.641 0.5 c-0.015 0.016-0.027 0.022-0.042 0.039c-0.2 0.168-0.421 0.32-0.622 0.467c-0.03 0.017-0.048 0.032-0.078 0.1 c-0.199 0.143-0.416 0.286-0.633 0.425c-0.03 0.021-0.059 0.042-0.085 0.061c-0.217 0.13-0.428 0.26-0.643 0.4 c-0.044 0.023-0.088 0.045-0.126 0.076c-0.204 0.111-0.414 0.224-0.626 0.337c-0.048 0.022-0.107 0.056-0.16 0.1 c-0.207 0.101-0.41 0.198-0.613 0.293c-0.057 0.029-0.135 0.064-0.2 0.092c-0.21 0.093-0.395 0.171-0.597 0.3 c-0.074 0.034-0.156 0.061-0.25 0.091c-0.17 0.069-0.372 0.149-0.561 0.208c-0.09 0.044-0.199 0.074-0.298 0.1 c-0.17 0.051-0.36 0.124-0.548 0.166c-0.101 0.025-0.202 0.063-0.316 0.097c-0.178 0.042-0.353 0.105-0.538 0.1 c-0.122 0.022-0.251 0.056-0.37 0.084c-0.172 0.036-0.343 0.075-0.506 0.101c-0.143 0.038-0.293 0.058-0.435 0.1 c-0.141 0.026-0.303 0.068-0.462 0.079c-0.16 0.027-0.322 0.046-0.483 0.056c-0.149 0.025-0.293 0.051-0.419 0.1 c-0.189 0.02-0.392 0.032-0.576 0.043c-0.122 0.007-0.237 0.015-0.353 0.025c-0.306 0.01-0.626 0.022-0.94 0 c-0.319 0-0.63-0.012-0.933-0.022c-0.116-0.009-0.233-0.017-0.351-0.025c-0.202-0.012-0.391-0.023-0.592-0.043 c-0.134-0.01-0.275-0.037-0.409-0.061c-0.16-0.009-0.321-0.029-0.494-0.056c-0.16-0.012-0.305-0.053-0.461-0.079 c-0.147-0.023-0.29-0.043-0.435-0.081c-0.166-0.026-0.325-0.065-0.493-0.101c-0.12-0.028-0.25-0.062-0.379-0.084 c-0.176-0.038-0.35-0.101-0.53-0.143c-0.114-0.034-0.217-0.072-0.329-0.097c-0.192-0.042-0.364-0.115-0.552-0.166 c-0.098-0.038-0.191-0.069-0.276-0.113c-0.202-0.059-0.393-0.139-0.579-0.208c-0.09-0.03-0.159-0.057-0.253-0.091 c-0.186-0.081-0.389-0.159-0.589-0.252c-0.056-0.028-0.131-0.063-0.209-0.092c-0.186-0.095-0.406-0.192-0.604-0.293 c-0.042-0.027-0.117-0.061-0.159-0.084c-0.221-0.113-0.422-0.225-0.63-0.337c-0.042-0.03-0.066-0.053-0.127-0.076 c-0.204-0.118-0.422-0.248-0.624-0.378c-0.032-0.019-0.056-0.04-0.104-0.061c-0.202-0.139-0.422-0.282-0.637-0.425 c-0.01-0.017-0.045-0.032-0.059-0.05c-0.214-0.147-0.422-0.299-0.64-0.467c-0.009-0.017-0.025-0.023-0.039-0.039 c-0.22-0.16-0.423-0.337-0.643-0.514c0 0 0-0.006-0.016-0.006c-0.217-0.181-0.419-0.374-0.621-0.559 c-3.615-3.358-5.867-8.111-5.867-13.388C80.982 81.3 89.3 73.1 99.6 73.082z M98.93 159.677l-32.934-17.83l18.631-27.597 l30.05-0.004l18.634 27.482L98.93 159.677z"/><polygon fill="#555759" points="84.8,116.2 70.7,141.9 75.8,144.3 87.5,116.2"/><polygon fill="#555759" points="90.2,116.2 79.6,146.1 86.3,149.4 93.1,116.2"/><polygon fill="#555759" points="90.2,151.2 96.7,154.9 98.1,116.2 95.4,116.2"/><polygon fill="#555759" points="111.1,116.2 122.8,144.3 128,141.9 113.8,116.2"/><polygon fill="#555759" points="105.6,116.2 112.3,149.4 119,146.1 108.5,116.2"/><polygon fill="#555759" points="100.5,116.2 102,154.9 108.5,151.2 103.3,116.2"/><path fill="#555759" d="M90.933 71.62c2.51-0.99 5.85-1.732 8.581-1.732c2.682 0 5.8 0.6 8.3 1.585l10.091-29.192 l-18.317-5.577l-18.178 5.391L90.933 71.62z M99.396 40.376l13.296 4.005l-6.096 24.495c-2.279-0.694-4.661-1.045-7.082-1.045 c-2.474 0-4.898 0.362-7.217 1.075l-1.845-7.359l4.522-2.746l-4.961 0.991l-0.283-1.196l5.184-2.939l-5.601 1.244l-0.299-1.138 l5.603-3.012l-5.978 1.474l-2.472-9.844L99.396 40.376z"/><path fill="#555759" d="M99.514 79.501c1.058 0 1.93-0.862 1.93-1.921c0-1.069-0.872-1.931-1.93-1.931 c-1.063 0-1.93 0.862-1.93 1.931C97.584 78.6 98.5 79.5 99.5 79.501z"/><path fill="#555759" d="M99.514 104.034c-1.063 0-1.93 0.874-1.93 1.934c0 1.1 0.9 1.9 1.9 1.9 c1.058 0 1.93-0.868 1.93-1.934C101.444 104.9 100.6 104 99.5 104.034z"/><path fill="#555759" d="M87.242 91.77c0-1.061-0.855-1.919-1.93-1.919c-1.06 0-1.917 0.858-1.917 1.9 c0 1.1 0.9 1.9 1.9 1.947C86.386 93.7 87.2 92.8 87.2 91.77z"/><path fill="#555759" d="M113.711 93.717c1.057 0 1.932-0.884 1.932-1.947c0-1.061-0.876-1.919-1.932-1.919 c-1.077 0-1.93 0.858-1.93 1.919C111.781 92.8 112.6 93.7 113.7 93.717z"/><path fill="#555759" d="M90.839 103.183c0.756-0.758 0.756-1.986 0-2.726c-0.75-0.759-1.972-0.759-2.722 0 c-0.76 0.74-0.76 2 0 2.726C88.867 103.9 90.1 103.9 90.8 103.183z"/><path fill="#555759" d="M110.925 83.104c0.743-0.757 0.743-1.968-0.014-2.729c-0.748-0.757-1.963-0.757-2.718 0 c-0.753 0.74-0.753 2 0 2.729C108.948 83.9 110.2 83.9 110.9 83.104z"/><path fill="#555759" d="M110.911 103.183c0.757-0.758 0.757-1.986 0.014-2.726c-0.761-0.759-1.976-0.759-2.732 0 c-0.753 0.74-0.753 2 0 2.726C108.948 103.9 110.2 103.9 110.9 103.183z"/><path fill="#555759" d="M90.839 83.104c0.756-0.757 0.756-1.989 0-2.729c-0.75-0.757-1.972-0.757-2.722 0 c-0.76 0.761-0.76 2 0 2.729C88.867 83.9 90.1 83.9 90.8 83.104z"/><path fill="#555759" d="M106.131 67.583l4.994-21.983l-9.405-2.926l-0.494 24.023c0 0 1 0.1 1.8 0.2 C103.806 67.1 106.1 67.6 106.1 67.583z"/></g><g><path fill="#FFFFFF" d="M21.222 64.422l3-6.108l2.723-0.929l3.977 1.954l0.763 2.237l2.236-0.764l4.369 2.146l0.929 2.7 l-3 6.108L21.222 64.422z M29.616 63.042l-0.375-1.048l-2.652-1.302l-0.907 0.31l-0.844 1.717l3.977 1.954L29.616 63.042z M36.201 66.168l-0.31-0.908l-2.999-1.474l-1.058 0.344l-0.8 1.63l4.325 2.124L36.201 66.168z"/><path fill="#FFFFFF" d="M31.095 47.393l2.807-3.586l14.744 8.279l-1.896 2.423L43.4 52.502l-1.672 2.137l2.753 2.77l-1.806 2.3 L31.095 47.393z M39.9 52.808l1.269-1.622l-7.151-4.305L39.9 52.808z"/><path fill="#FFFFFF" d="M50.843 46.974l-8.138-9.68l0.248-2.867l3.598-3.024l2.867 0.248l1.948 2.318l-2.392 2.01l-1.153-1.373 l-0.972-0.101l-0.89 0.749l-0.067 0.974l6.609 7.862l0.956 0.082l0.908-0.763l0.083-0.956l-2.057-2.448l-1.132 0.951l-1.699-2.021 l3.524-2.962l4.49 5.34l-0.248 2.867l-3.616 3.04L50.843 46.974z"/><path fill="#FFFFFF" d="M62.632 37.927l-5.904-11.183l0.849-2.749l4.156-2.195l2.75 0.849l1.414 2.678l-2.764 1.459l-0.837-1.585 l-0.928-0.305l-1.028 0.543l-0.272 0.938l4.796 9.083l0.917 0.282l1.05-0.554l0.283-0.917l-1.493-2.828l-1.307 0.69l-1.233-2.334 l4.07-2.149l3.257 6.17l-0.85 2.75l-4.177 2.205L62.632 37.927z"/><path fill="#FFFFFF" d="M72.13 17.475l7.047-2.053l0.766 2.628l-4.047 1.18l1.145 3.93l3.675-1.07l0.766 2.628l-3.675 1.1 l1.234 4.232l4.094-1.192l0.766 2.627l-7.094 2.068L72.13 17.475z"/><path fill="#FFFFFF" d="M87.788 13.758l6.926-0.599l2.202 1.852l0.506 5.841l-1.524 1.784l2.477 6.983l-3.137 0.271L92.96 23.2 l-1.207 0.105l0.589 6.805l-3.114 0.269L87.788 13.758z M93.598 20.768l0.615-0.758l-0.318-3.668l-0.736-0.642l-2.052 0.2 l0.438 5.068L93.598 20.768z"/><path fill="#FFFFFF" d="M113.674 14.194l6.568 1.48l1.537 2.432l-2.779 12.332l-2.431 1.537L110 30.495L113.674 14.194z M115.407 29.082l0.816-0.536l2.236-9.922l-0.507-0.834l-1.796-0.405l-2.544 11.293L115.407 29.082z"/><path fill="#FFFFFF" d="M132.581 19.861l4.139 1.9l-4.637 16.258l-2.795-1.282l1.175-3.724l-2.465-1.131l-2.057 3.32l-2.663-1.222 L132.581 19.861z M129.355 29.68l1.871 0.858l2.53-7.952L129.355 29.68z"/><path fill="#FFFFFF" d="M145.431 26.586l2.568 1.865L140.99 40.78l9.576-10.465l2.39 1.736l-11.74 12.126l-3.684-2.675 L145.431 26.586z"/><path fill="#FFFFFF" d="M159.282 37.814l4.981 5.391l-2.01 1.857l-2.861-3.096l-3.007 2.779l2.598 2.811l-2.011 1.9 l-2.597-2.811l-3.239 2.993l2.894 3.131l-2.01 1.857l-5.014-5.426L159.282 37.814z"/><path fill="#FFFFFF" d="M164.191 50.769l-1.526-0.213l-1.051-1.393l1.063-0.803l0.511 0.677l0.358 0.033l0.735-0.555l-0.657-0.87 l2.572-1.94l1.707 2.261L164.191 50.769z"/><path fill="#FFFFFF" d="M157.504 58.482l2.566-1.514l1.575 2.67l-1.523 0.899l-0.227 0.95l0.566 0.959l0.928 0.239l2.795-1.649 l0.188-0.73l-1.662-2.816l0.608-2.355l5.11-3.015l2.786 0.718l2.314 3.921l-0.719 2.787l-2.565 1.514l-1.588-2.691l1.502-0.886 l0.261-0.941l-0.517-0.877l-0.962-0.248l-2.67 1.576l-0.188 0.73l1.674 2.838l-0.607 2.355l-5.215 3.076l-2.786-0.718 l-2.363-4.005L157.504 58.482z"/></g></g></svg>