<?xml version="1.0" encoding="utf-8"?>
<!-- Generator: Adobe Illustrator 17.1.0, SVG Export Plug-In . SVG Version: 6.00 Build 0)  -->
<!DOCTYPE svg PUBLIC "-//W3C//DTD SVG 1.1//EN" "http://www.w3.org/Graphics/SVG/1.1/DTD/svg11.dtd">
<svg version="1.1" id="Layer_1" xmlns="http://www.w3.org/2000/svg" xmlns:xlink="http://www.w3.org/1999/xlink" x="0px" y="0px"
	 viewBox="0 0 200 200" enable-background="new 0 0 200 200" xml:space="preserve">
<g>
	<g>
		<g>
			<g>
				<g>
					<g>
						<path fill="#FFFFFF" d="M62.572,191.797h-5.397v2.48h4.784v1.499h-4.784v2.562h5.465v1.499h-7.141v-9.54h7.073V191.797z"/>
						<path fill="#FFFFFF" d="M71.578,199.837h-1.69v-3.762l-3.788-5.777h1.976l2.671,4.224l2.698-4.224h1.922l-3.789,5.737
							L71.578,199.837L71.578,199.837z"/>
						<path fill="#FFFFFF" d="M86.363,191.797h-5.397v2.48h4.784v1.499h-4.784v2.562h5.465v1.499H79.29v-9.54h7.073V191.797z"/>
						<path fill="#FFFFFF" d="M102.59,200c-2.78,0-4.851-2.166-4.851-4.92c0-2.725,2.03-4.946,4.92-4.946c1.758,0,2.8,0.6,3.7,1.485
							l-1.077,1.24c-0.763-0.709-1.581-1.186-2.671-1.186c-1.827,0-3.148,1.499-3.148,3.4c0,1.9,1.3,3.4,3.1,3.406
							c1.172,0,1.921-0.477,2.739-1.24l1.077,1.09C105.466,199.3,104.4,200,102.6,200H102.59z"/>
						<path fill="#FFFFFF" d="M118.983,199.837h-1.771l-0.968-2.303h-4.512l-0.98,2.303h-1.718l4.197-9.607h1.553L118.983,199.837z
							 M113.982,192.233l-1.635,3.815h3.283L113.982,192.233z"/>
						<path fill="#FFFFFF" d="M128.643,199.837l-2.344-3.325H124.2v3.325h-1.675v-9.54h4.251c2.194,0,3.5,1.2,3.5,3
							c0,1.581-0.941,2.534-2.277,2.902l2.575,3.612h-1.931V199.837z M126.64,191.824h-2.44v3.202h2.453
							c1.199,0,1.962-0.627,1.962-1.608c0-1.018-0.715-1.618-2.015-1.594H126.64z"/>
						<path fill="#FFFFFF" d="M141.901,191.797h-5.398v2.48h4.783v1.499h-4.783v2.562h5.465v1.499h-7.142v-9.54h7.074
							L141.901,191.797L141.901,191.797z"/>
					</g>
				</g>
				<g>
					<g>
						<path fill="#6DCC9D" d="M29.07,173.913v-0.061c0-4.548,3.538-8.383,8.622-8.383c3.3,0,5.5,1.4,6.9,3.598l-3.835,2.9
							c-0.773-1.071-1.635-1.695-3.003-1.695c-1.814,0-3.152,1.605-3.152,3.568v0.058c0,2.1,1.3,3.7,3.2,3.7
							c1.338,0,2.2-0.624,3.093-1.666l3.775,2.735c-1.486,2.2-3.627,3.687-7.165,3.687c-4.868-0.054-8.405-3.854-8.405-8.441H29.07z
							"/>
						<path fill="#6DCC9D" d="M46.681,160.176h5.649v7.819c1.04-1.338,2.527-2.556,4.816-2.556c3.419,0,5.5,2.3,5.5,5.9v10.524
							h-5.649v-8.711c0-1.754-0.922-2.706-2.26-2.706c-1.368,0-2.378,0.952-2.378,2.706v8.711H46.71v-21.687H46.681z"/>
						<path fill="#6DCC9D" d="M65.082,160.176h5.887v4.164h-5.887V160.176z M65.201,165.797h5.649v16.084h-5.649V165.797z"/>
						<path fill="#6DCC9D" d="M73.584,160.176h5.649v21.704h-5.649V160.176z"/>
						<path fill="#6DCC9D" d="M81.254,173.913v-0.061c0-5.233,3.27-8.413,7.076-8.413c2.438,0,3.9,1.1,4.9,2.319v-7.582h5.649
							v21.704H93.23v-2.14c-1.1,1.338-2.497,2.498-4.906,2.498c-3.77-0.038-7.024-3.138-7.024-8.325H81.254z M93.355,173.9v-0.058
							c0-2.112-1.456-3.629-3.27-3.629c-1.813,0-3.3,1.488-3.3,3.629v0.058c0,2.1,1.5,3.7,3.3,3.7c1.813-0.1,3.315-1.6,3.315-3.747
							L93.355,173.9z"/>
						<path fill="#6DCC9D" d="M102.207,165.797h5.649v3.24c0.922-2.199,2.407-3.627,5.083-3.508v5.947h-0.474
							c-2.944,0-4.609,1.695-4.609,5.412v4.994h-5.649V165.797z"/>
						<path fill="#6DCC9D" d="M114.238,173.913v-0.061c0-4.697,3.358-8.413,8.116-8.413c5.56,0,8.1,4.1,8.1,8.8
							c0,0.4,0,0.773-0.03,1.159h-10.762c0.446,1.8,1.7,2.6,3.5,2.647c1.338,0,2.41-0.506,3.568-1.635l3.122,2.6
							c-1.547,1.962-3.775,3.271-6.987,3.271c-5.06,0.019-8.665-3.381-8.665-8.368H114.238z M125.179,172.5
							c-0.208-1.783-1.248-2.913-2.794-2.913c-1.487,0-2.498,1.159-2.794,2.913H125.179z"/>
						<path fill="#6DCC9D" d="M132.373,165.797h5.649v2.26c1.04-1.338,2.527-2.617,4.816-2.617c3.42,0,5.5,2.3,5.5,5.9v10.524
							h-5.649v-8.711c0-1.754-0.922-2.706-2.26-2.706c-1.368,0-2.378,0.952-2.378,2.706v8.711h-5.649v-16.067H132.373z"/>
						<path fill="#6DCC9D" d="M150.031,169.661c1.992-0.208,3.062-1.189,2.972-2.796h-2.26v-5.797h5.857v4.727
							c0,4.401-2.378,5.917-6.094,6.035L150.031,169.661z"/>
						<path fill="#6DCC9D" d="M156.809,179.859l2.111-3.42c1.842,1.2,3.9,1.8,5.5,1.844c0.982,0,1.427-0.296,1.427-0.861v-0.06
							c0-0.624-0.891-0.89-2.586-1.367c-3.181-0.832-5.708-1.903-5.708-5.143v-0.059c0-3.42,2.735-5.321,6.451-5.321
							c2.349,0,4.8,0.7,6.6,1.873l-1.932,3.567c-1.666-0.92-3.479-1.487-4.758-1.487c-0.863,0-1.308,0.327-1.308,0.774v0.058
							c0,0.6,0.9,0.9,2.6,1.427c3.181,0.9,5.7,2,5.7,5.114v0.059c0,3.538-2.647,5.382-6.571,5.4
							c-2.621-0.057-5.335-0.757-7.535-2.398H156.809z"/>
					</g>
				</g>
			</g>
		</g>
	</g>
	<g>
		<path fill="#6DCC9D" d="M148.117,96.015c0.268,1.1,0.6,2.2,0.9,3.217c-2.648-0.754-4.867-1.811-6.744-3.057
			c-0.117,0.216-0.238,0.445-0.364,0.693c-2.378,5.37-8.199,12.641-5.557,14.098c-3.039,0.264-6.082-1.719-6.082-1.719
			s-1.911,1.794-2.323,4.127c-0.15,0.867-0.53,4.05-0.527,8.413c2.281,2.1,4.6,3,5.9,4.2c10.612-6.639,19.095-16.357,24.203-27.907
			c-2.894,0.02-6.123-0.68-9.423-2.065H148.117z"/>
		<path fill="#6DCC9D" d="M129.393,52.538c-1.527-7.18-4.006-12.972-8.342-11.978l0.598,0.927l-2.035,2.1c2.279,2.3,3.5,5.2,4,7.962
			c2.141,0.1,4.1,0.3,5.2,0.778c0.189,0.073,0.386,0.173,0.586,0.211H129.393z"/>
		<path fill="#6DCC9D" d="M80.652,110.441c0.784-2.958-0.247-3.319-0.269-6.382c-0.162-3.185-3.75-4.829-6.59-4.649
			c-4.202,0.202-8.712,1.328-12.67-0.725c-2.765-1.431-2.04-3.686-1.679-6.223c0.201-1.42,0.861-2.958-0.375-3.563
			c-1.167-0.573-1.336-2.827,1.347-3.631c-1.431-0.09-2.416-0.985-3.399-1.61c-0.985-0.627,0.871-1.412,1.234-3.374
			c-2.458-0.358-5.637-1.608-5.337-3.721c0.416-1.846,2.335-2.233,3.169-3.321c1.081-1.406,1.935-1.885,1.945-5.145
			c-0.917-0.046-1.902-0.184-2.748-0.867c1.031-0.073,1.88-0.419,2.671-0.827c-0.104-1.177-0.605-1.815-0.963-3.31
			c-1.169-4.193,0.888-8.702,4.594-14.166c-2.001-3.503,2.656-9.611,8.185-13.516c10.014-7.738,28.893-9.664,40.8,0.3l3.109-2.252
			l0.709,0.331c3.024-6.853,7.727-10.171,14.637-9.913c12.314,0.5,22.8,13.6,23.9,36.4c1.043,21.7,1.6,24.1,5.2,32.452
			c-1.123-0.784-3.07-1.352-4.681-4.264c0.636,5.1,1.8,8.5,4.1,9.4c3.367-7.699,5.246-16.196,5.246-25.136
			c0-34.695-28.125-62.821-62.822-62.821c-34.693,0-62.821,28.126-62.821,62.8c0,20.3,9.7,38.4,24.6,49.866
			C71.087,107.4,75.7,118.6,80.7,110.441H80.652z"/>
		<path fill="#FFFFFF" d="M118.262,37.858l-3.518-3.46c0,0-0.781,0.383-0.68,0.65c0.702,1.8,0.4,1.777-1.261,1.1
			c-0.629-0.271-1.021,0.59-1.021,0.59c2.119,1.6,2.6,2,5.5,4.661c-0.203-1.899-1.082-4.499,1.018-3.541H118.262z"/>
		<path fill="#6A5B5C" d="M99.999,0c-40.104,0-72.73,32.627-72.73,72.73c0,40.1,32.6,72.7,72.7,72.7
			c40.104,0,72.732-32.626,72.732-72.728C172.731,32.6,140.1,0,99.999,0L99.999,0z M99.999,139.3
			c-36.689,0-66.537-29.847-66.537-66.534c0-36.689,29.848-66.537,66.537-66.537s66.5,29.8,66.5,66.5
			C166.537,109.4,136.7,139.3,100,139.265L99.999,139.3z"/>
		<path fill="#6A5B5C" d="M99.999,8.361c-35.493,0-64.369,28.876-64.369,64.369c0,20.9,10,39.4,25.4,51.2
			c6.429,4.9,13.8,8.6,21.8,10.839c0.145-0.502,0.336-0.982,0.567-1.439c3.32-6.588,14.971-8.762,21.053-8.762
			c0.281-1.965,1.263-7.538,0.317-7.432c-12.456,1.433-14.873-1.134-14.994-4.202c-0.433-0.736,0.044-2.823,0.068-4.236
			l-2.393-1.115c-0.107-0.722,0.065-1.425,0.363-2.117c-1.65-0.229-3.007-1.087-3.518-1.959c0.51-0.901,1.715-1.759,1.403-3.752
			c-1.778-0.328-2.647-1.75-2.865-3.158c-0.21-1.384,3.428-2.072,4.442-4.963c0.133-0.374,0.165-0.821,0.133-1.348L87.15,88.5
			c-0.598-2.957-1.902-7.335-1.195-12.97c1.127-8.958,4.544-11.746,6.781-13.522c4.853-3.86,5.993-5.3,11.815-7.012
			c-1.747-0.23-2.835-2.342-3.804-3.299c2.358,0.8,9,1,12.1,0.849c2.414-0.462,3.2,0.3,5.8,0.2c-0.668-0.927-2.908-1.88-3.186-3.045
			c1.125,1.4,4.9,1.6,8.2,1.827c-0.567-2.789-1.744-5.62-4.023-7.962l2.035-2.109l-0.598-0.927c4.335-0.994,6.8,4.8,8.3,11.978
			c1.926,0.8,4,3.1,6.3,5.151c0.01-1.446-0.847-3.527-1.466-5.177c1.244,2.2,4.6,4.5,4.3,7.331c5.228,3.4,9.2,14.3,8.1,21.276
			c-1.72,11.646-2.675,11.845-4.421,15.1c1.878,1.2,4.1,2.3,6.7,3.057c-0.305-1.056-0.603-2.118-0.871-3.217
			c3.243,1.4,6.5,2.1,9.4,2.1c-5.108,11.55-13.591,21.269-24.203,27.907c0.409,0.4,0.7,0.8,0.8,1.264
			c18.155-11.394,30.256-31.578,30.256-54.546C164.37,37.2,135.5,8.4,99.999,8.361L99.999,8.361z M117.287,41.365
			c-2.93-2.677-3.385-3.081-5.504-4.661c0,0,0.392-0.861,1.021-0.59c1.674,0.7,2,0.8,1.261-1.066c-0.102-0.266,0.68-0.65,0.68-0.65
			l3.518,3.46C116.193,36.9,117.1,39.5,117.3,41.4L117.287,41.365z M153.48,88.462c1.611,2.9,3.6,3.5,4.7,4.264
			c-3.66-8.364-4.181-10.743-5.223-32.452c-1.096-22.767-11.569-35.937-23.884-36.397c-6.91-0.258-11.613,3.06-14.637,9.913
			l-0.709-0.331l-3.109,2.3c-11.939-9.964-30.819-8.038-40.832-0.3c-5.528,3.905-10.185,10.012-8.185,13.516
			c-3.706,5.464-5.763,9.974-4.594,14.2c0.358,1.5,0.9,2.1,1,3.31c-0.791,0.409-1.64,0.755-2.671,0.827c0.847,0.7,1.8,0.8,2.7,0.9
			c-0.01,3.26-0.864,3.739-1.945,5.145c-0.835,1.088-2.753,1.475-3.169,3.321c-0.3,2.1,2.9,3.4,5.3,3.7
			c-0.363,1.962-2.219,2.747-1.234,3.374c0.984,0.6,2,1.5,3.4,1.61c-2.683,0.804-2.515,3.058-1.347,3.6c1.236,0.6,0.6,2.1,0.4,3.563
			c-0.36,2.537-1.086,4.8,1.7,6.223c3.958,2.1,8.5,0.9,12.7,0.7c2.84-0.18,6.4,1.5,6.6,4.649c0.022,3.1,1.1,3.4,0.3,6.382
			c-4.966,8.154-9.565-3.059-18.839,12.2C46.841,111.1,37.2,93.1,37.2,72.73c0-34.695,28.127-62.821,62.821-62.821
			c34.697,0,62.8,28.1,62.8,62.8c0,8.94-1.88,17.437-5.246,25.136C155.269,97,154.1,93.5,153.5,88.462H153.48z"/>
		<g>
			<path fill="#FFFFFF" d="M99.999,6.194c-36.689,0-66.537,29.848-66.537,66.537c0,36.7,29.8,66.5,66.5,66.5
				c36.689,0,66.538-29.847,66.538-66.534C166.537,36,136.7,6.2,99.999,6.194L99.999,6.194z M108.099,87.857h-15.82l1.181,5.9
				c0.135,0.671-0.3,1.323-0.971,1.458c-0.082,0.016-0.165,0.024-0.245,0.024c-0.578,0-1.095-0.406-1.213-0.995L88.648,82.37
				c-0.135-0.671,0.3-1.323,0.971-1.458c0.676-0.133,1.3,0.3,1.5,0.971l0.705,3.513h19.581h10.419c3.825,0,6.9,3.1,6.9,6.939
				c0,0.684-0.554,1.239-1.239,1.239s-1.239-0.555-1.239-1.239c0-2.46-2.001-4.461-4.459-4.461h-13.688V87.857z M134.113,127.277
				c-0.154-0.47-0.44-0.884-0.849-1.264c-1.276-1.185-3.593-2.152-5.874-4.225c-0.002-4.363,0.377-7.546,0.527-8.413
				c0.411-2.333,2.323-4.127,2.323-4.127s3.043,2,6.1,1.719c-2.642-1.456,3.179-8.728,5.557-14.098
				c0.126-0.248,0.247-0.477,0.364-0.693c1.747-3.212,2.701-3.411,4.421-15.057c1.033-7.009-2.915-17.84-8.143-21.276
				c0.317-2.836-3.068-5.108-4.311-7.331c0.619,1.6,1.5,3.7,1.5,5.177c-2.254-2.002-4.357-4.377-6.283-5.151
				c-0.196-0.079-0.391-0.159-0.583-0.203c-1.045-0.492-3.031-0.641-5.173-0.778c-3.354-0.214-7.096-0.398-8.221-1.827
				c0.278,1.2,2.5,2.1,3.2,3c-2.598,0.056-3.365-0.671-5.78-0.209c-3.123,0.144-9.719-0.005-12.076-0.849c0.969,1,2.1,3.1,3.8,3.3
				c-5.822,1.713-6.962,3.152-11.815,7.012c-2.238,1.776-5.654,4.564-6.781,13.522c-0.706,5.6,0.6,10,1.2,13l0.264,1.752
				c0.031,0.5,0,0.974-0.133,1.348c-1.014,2.891-4.652,3.579-4.442,4.963c0.218,1.4,1.1,2.8,2.9,3.2
				c0.312,1.994-0.893,2.851-1.403,3.752c0.51,0.9,1.9,1.7,3.5,1.959c-0.298,0.692-0.469,1.395-0.363,2.117l2.393,1.1
				c-0.024,1.413-0.501,3.501-0.068,4.236c0.121,3.1,2.5,5.6,15,4.202c0.946-0.105-0.036,5.468-0.317,7.4
				c-6.082,0-17.733,2.174-21.053,8.762c-0.231,0.457-0.422,0.937-0.567,1.439c-7.998-2.216-15.374-5.932-21.803-10.839
				C45.609,112.1,35.6,93.6,35.6,72.73c0-35.493,28.876-64.369,64.369-64.369c35.494,0,64.4,28.9,64.4,64.4
				C164.37,95.7,152.3,115.9,134.1,127.277H134.113z"/>
		</g>
		<path fill="#6A5B5C" d="M121.782,85.38h-10.419H91.782l-0.705-3.513c-0.134-0.671-0.782-1.103-1.458-0.971
			c-0.671,0.135-1.106,0.787-0.971,1.458l2.383,11.874c0.118,0.6,0.6,1,1.2,0.995c0.08,0,0.163-0.008,0.245-0.024
			c0.671-0.135,1.106-0.788,0.971-1.458l-1.181-5.883h15.82h13.683c2.458,0,4.5,2,4.5,4.5c0,0.7,0.6,1.2,1.2,1.239
			c0.685,0,1.239-0.555,1.239-1.239c0.01-3.858-3.108-6.958-6.908-6.978H121.782z"/>
	</g>
</g>
</svg>
