<svg xmlns="http://www.w3.org/2000/svg" xmlns:xlink="http://www.w3.org/1999/xlink" version="1.1" x="0px" y="0px" viewBox="0 0 200 200" enable-background="new 0 0 200 200" xml:space="preserve"><g><path fill="#FFFFFF" d="M96.217 67.178H110.3c7.209 0 11.6 3.1 11.6 9.204v0.223c0 5.655-4.214 9.204-11.533 9.204h-1.375 l36.478 39.482L127.6 99.116c9.648-4.103 15.969-11.977 15.969-23.843v-0.222c0-7.652-2.329-13.64-6.876-18.076 c-5.212-5.322-13.418-8.428-25.285-8.428H74.704v0.101l21.513 23.285V67.178z"/><polygon fill="#6CC04A" points="129.6,113.7 48.2,37 58.8,37 58.8,37.1"/><g><path fill="#FFFFFF" d="M15.101 134.96v4.236c0 0.742-0.266 1.381-0.797 1.919c-0.532 0.538-1.175 0.808-1.93 0.808h-1.531 l4.258 5.075v0.315h-2.685l-4.53-5.389H2.727c-0.112 0-0.266-0.014-0.461-0.043v5.432H0v-15.079h12.374 c0.755 0 1.4 0.3 1.9 0.807C14.835 133.6 15.1 134.2 15.1 134.96z M2.727 139.658h9.648 c0.125 0 0.234-0.045 0.325-0.137c0.091-0.091 0.136-0.199 0.136-0.325v-4.236c0-0.125-0.046-0.234-0.136-0.325 c-0.091-0.091-0.2-0.136-0.325-0.136H2.727c-0.126 0-0.234 0.045-0.325 0.136c-0.091 0.092-0.136 0.2-0.136 0.325v4.236 c0 0.1 0 0.2 0.1 0.325C2.492 139.6 2.6 139.7 2.7 139.658z"/><path fill="#FFFFFF" d="M37.411 132.213v2.265H25.835v4.152h9.312v2.265h-9.312v4.153h11.577v2.265H23.57v-15.1L37.411 132.2 L37.411 132.213z"/><path fill="#FFFFFF" d="M58.676 144.293v-12.08h2.265v15.1h-2.685l-10.151-12.08v12.08H45.84v-15.1h2.685L58.676 144.293z"/><path fill="#FFFFFF" d="M83.331 132.213v2.265H71.754v4.152h9.312v2.265h-9.312v4.153h11.577v2.265H69.489v-15.1L83.331 132.2 L83.331 132.213z"/><path fill="#FFFFFF" d="M106.86 134.939v0.902h-2.265v-0.902c0-0.125-0.046-0.234-0.136-0.325 c-0.091-0.091-0.199-0.136-0.325-0.136h-9.648c-0.126 0-0.234 0.045-0.325 0.136c-0.091 0.091-0.136 0.2-0.136 0.325v9.648 c0 0.1 0 0.2 0.1 0.325s0.199 0.1 0.3 0.136h9.648c0.126 0 0.234-0.045 0.325-0.136 c0.091-0.092 0.136-0.2 0.136-0.325v-3.272h-3.565v-2.265h5.83v5.537c0 0.755-0.266 1.398-0.797 1.9 c-0.532 0.531-1.174 0.797-1.93 0.797h-9.648c-0.755 0-1.398-0.266-1.93-0.797c-0.532-0.532-0.797-1.175-0.797-1.93v-9.648 c0-0.755 0.265-1.398 0.797-1.93c0.531-0.532 1.174-0.797 1.93-0.797h9.648c0.755 0 1.4 0.3 1.9 0.8 S106.86 134.2 106.9 134.939z"/><path fill="#FFFFFF" d="M118.086 132.213h9.648c0.756 0 1.4 0.3 1.9 0.797s0.797 1.2 0.8 1.93v12.374h-2.265v-5.285 h-10.571v5.285h-2.265V134.94c0-0.755 0.266-1.398 0.797-1.93C116.688 132.5 117.3 132.2 118.1 132.213z M117.625 139.8 h10.571v-4.824c0-0.125-0.046-0.234-0.137-0.325c-0.091-0.091-0.199-0.136-0.325-0.136h-9.648c-0.125 0-0.234 0.045-0.325 0.1 c-0.091 0.091-0.136 0.2-0.136 0.325C117.625 134.9 117.6 139.8 117.6 139.763z"/><path fill="#FFFFFF" d="M139.039 132.213h12.374c0.755 0 1.4 0.3 1.9 0.797c0.531 0.5 0.8 1.2 0.8 1.93v9.648 c0 0.755-0.266 1.398-0.797 1.93c-0.532 0.531-1.175 0.797-1.93 0.797h-12.374V132.213z M151.873 144.587v-9.648 c0-0.125-0.045-0.234-0.136-0.325c-0.092-0.091-0.2-0.136-0.325-0.136h-9.648c-0.126 0-0.234 0.045-0.325 0.1 c-0.092 0.091-0.136 0.2-0.136 0.325v9.648c0 0.1 0 0.2 0.1 0.325c0.091 0.1 0.2 0.1 0.3 0.136h9.648 c0.125 0 0.234-0.045 0.325-0.136C151.828 144.8 151.9 144.7 151.9 144.587z"/><path fill="#FFFFFF" d="M176.522 132.213v2.265h-11.576v4.152h9.311v2.265h-9.311v4.153h11.576v2.265h-13.841v-15.1 L176.522 132.213L176.522 132.213z"/><path fill="#FFFFFF" d="M200 134.939v0.881h-2.265v-0.881c0-0.125-0.045-0.234-0.137-0.325c-0.091-0.091-0.199-0.136-0.325-0.136 h-9.648c-0.125 0-0.234 0.045-0.325 0.136s-0.136 0.2-0.136 0.325v3.23c0 0.1 0 0.2 0.1 0.3 c0.092 0.1 0.2 0.1 0.3 0.136h9.648c0.756 0 1.4 0.3 1.9 0.797c0.532 0.5 0.8 1.2 0.8 1.93v3.23 c0 0.755-0.266 1.398-0.797 1.93c-0.532 0.531-1.174 0.797-1.93 0.797h-9.648c-0.755 0-1.398-0.266-1.929-0.797 c-0.532-0.532-0.797-1.175-0.797-1.93v-0.881h2.265v0.881c0 0.1 0 0.2 0.1 0.325c0.092 0.1 0.2 0.1 0.3 0.1 h9.648c0.126 0 0.234-0.045 0.325-0.136c0.092-0.092 0.137-0.2 0.137-0.325v-3.23c0-0.126-0.045-0.234-0.137-0.325 c-0.091-0.091-0.199-0.137-0.325-0.137h-9.648c-0.755 0-1.398-0.265-1.929-0.797c-0.532-0.532-0.797-1.175-0.797-1.93v-3.23 c0-0.755 0.266-1.398 0.797-1.93c0.531-0.532 1.174-0.797 1.929-0.797h9.648c0.756 0 1.4 0.3 1.9 0.8 C199.734 133.5 200 134.2 200 134.939z"/><path fill="#FFFFFF" d="M41.132 162.842H39.07v-5.938h2.062c1.866 0 3.2 1.3 3.2 3 C44.288 161.5 43 162.8 41.1 162.842z M41.132 157.524h-1.391v4.699h1.391c1.502 0 2.46-1.018 2.46-2.341 C43.593 158.6 42.6 157.5 41.1 157.524z"/><path fill="#FFFFFF" d="M52.682 157.515h-3.623v2.027H52.3v0.611h-3.241v2.079h3.665v0.611h-4.335v-5.938h4.293V157.515z"/><path fill="#FFFFFF" d="M59.054 162.842h-0.679v-5.319h-1.994v-0.62h4.666v0.62h-1.994L59.054 162.842L59.054 162.842z"/><path fill="#FFFFFF" d="M68.987 162.842l-1.722-2.308h-1.697v2.308h-0.67v-5.938h2.554c1.307 0 2.1 0.7 2.1 1.8 c0 0.993-0.678 1.57-1.612 1.74l1.824 2.426L68.987 162.842L68.987 162.842z M67.401 157.524h-1.833v2.409h1.824 c0.891 0 1.527-0.458 1.527-1.23C68.92 158 68.4 157.5 67.4 157.524z"/><path fill="#FFFFFF" d="M76.376 162.944c-1.807 0-3.02-1.417-3.02-3.062c0-1.646 1.23-3.08 3.037-3.08s3.02 1.4 3 3.1 C79.413 161.5 78.2 162.9 76.4 162.944z M76.376 157.422c-1.357 0-2.325 1.086-2.325 2.443c0 1.4 1 2.5 2.3 2.5 c1.357 0 2.324-1.086 2.324-2.443C78.717 158.5 77.7 157.4 76.4 157.422z"/><path fill="#FFFFFF" d="M84.226 156.904v5.938h-0.67v-5.938H84.226z"/><path fill="#FFFFFF" d="M90.769 162.842H90.09v-5.319h-1.994v-0.62h4.666v0.62h-1.994v5.319H90.769z"/><path fill="#6CC04A" d="M100.622 156.477l0.811 2.485h2.628l-2.126 1.54l0.811 2.506l-2.126-1.541l-2.136 1.541l0.821-2.506 l-2.125-1.54h2.628L100.622 156.477z"/><path fill="#FFFFFF" d="M112.886 157.515h-3.623v2.027h3.241v0.611h-3.241v2.079h3.666v0.611h-4.335v-5.938h4.293L112.886 157.5 L112.886 157.515z"/><path fill="#FFFFFF" d="M119.095 159.551c1.323 0.3 1.9 0.8 1.9 1.688c0 1.027-0.848 1.688-2.027 1.7 c-0.942 0-1.714-0.314-2.426-0.95l0.416-0.492c0.619 0.6 1.2 0.8 2 0.839c0.797 0 1.323-0.416 1.323-1.018 c0-0.56-0.296-0.874-1.543-1.136c-1.366-0.297-1.994-0.738-1.994-1.722c0-0.951 0.823-1.629 1.951-1.629 c0.865 0 1.5 0.2 2.1 0.729l-0.39 0.518c-0.552-0.45-1.102-0.645-1.713-0.645c-0.772 0-1.265 0.424-1.265 1 C117.483 159 117.8 159.3 119.1 159.551z"/><path fill="#FFFFFF" d="M127.299 162.842h-0.679v-5.319h-1.994v-0.62h4.666v0.62h-1.993 C127.299 157.5 127.3 162.8 127.3 162.842z"/><path fill="#FFFFFF" d="M132.368 162.842v-0.891h0.78v0.891H132.368z"/><path fill="#FFFFFF" d="M137.754 158.44l-0.492-0.356c0.534-0.797 1.095-1.264 2.138-1.264c1.077 0 1.8 0.7 1.8 1.7 c0 0.873-0.458 1.408-1.502 2.316l-1.586 1.408h3.148v0.611h-4.149v-0.518l2.155-1.9c0.908-0.815 1.238-1.272 1.238-1.867 c0-0.695-0.551-1.136-1.196-1.136C138.67 157.4 138.2 157.8 137.8 158.44z"/><path fill="#FFFFFF" d="M147.457 162.944c-1.536 0-2.503-1.392-2.503-3.062c0-1.672 0.984-3.08 2.52-3.08 c1.528 0 2.5 1.4 2.5 3.062C149.968 161.5 149 162.9 147.5 162.944z M147.457 157.4 c-1.111 0-1.808 1.136-1.808 2.452s0.713 2.5 1.8 2.469c1.112 0 1.799-1.145 1.799-2.452 C149.273 158.6 148.6 157.4 147.5 157.413z"/><path fill="#FFFFFF" d="M156.282 162.944c-1.536 0-2.503-1.392-2.503-3.062c0-1.672 0.984-3.08 2.52-3.08 c1.528 0 2.5 1.4 2.5 3.062C158.793 161.5 157.8 162.9 156.3 162.944z M156.282 157.4 c-1.111 0-1.808 1.136-1.808 2.452s0.713 2.5 1.8 2.469c1.112 0 1.799-1.145 1.799-2.452 C158.098 158.6 157.4 157.4 156.3 157.413z"/><path fill="#FFFFFF" d="M162.206 156.904h4.03v0.5l-2.698 5.438h-0.747l2.681-5.328h-3.266V156.904z"/></g></g></svg>